<svg xmlns="http://www.w3.org/2000/svg" viewBox="0 0 600 400">
  <defs>
    <linearGradient id="bgInfo" x1="0" y1="0" x2="1" y2="1">
      <stop offset="0%" stop-color="#1b4332"/>
      <stop offset="100%" stop-color="#2f7d4f"/>
    </linearGradient>
  </defs>
  <rect width="600" height="400" fill="url(#bgInfo)"/>
  <g opacity="0.12">
    <circle cx="500" cy="70" r="120" fill="#ffffff"/>
    <circle cx="60" cy="360" r="150" fill="#ffffff"/>
  </g>
  <!-- monitor -->
  <rect x="180" y="120" width="240" height="160" rx="10" fill="#eaf6ee"/>
  <rect x="198" y="138" width="204" height="124" rx="4" fill="#1b4332"/>
  <rect x="270" y="280" width="60" height="16" fill="#eaf6ee"/>
  <rect x="240" y="296" width="120" height="12" rx="6" fill="#eaf6ee"/>
  <!-- code lines on screen -->
  <rect x="214" y="152" width="80" height="8" rx="2" fill="#6fbf8b"/>
  <rect x="214" y="168" width="140" height="8" rx="2" fill="#ffffff" opacity="0.85"/>
  <rect x="214" y="184" width="110" height="8" rx="2" fill="#6fbf8b"/>
  <rect x="214" y="200" width="150" height="8" rx="2" fill="#ffffff" opacity="0.6"/>
  <rect x="214" y="216" width="90" height="8" rx="2" fill="#6fbf8b"/>
  <rect x="214" y="232" width="130" height="8" rx="2" fill="#ffffff" opacity="0.85"/>
  <text x="300" y="352" font-family="Arial, sans-serif" font-size="30" font-weight="700" fill="#ffffff" text-anchor="middle">Informática</text>
</svg>
